<svg width="25" height="23" viewBox="0 0 25 23" fill="none" xmlns="http://www.w3.org/2000/svg">
<path d="M14.3253 13.4816C13.4948 9.20455 9.57663 7.26084 5.57792 8.01826C6.03639 5.61855 8.28302 3.65644 9.74289 1.83248C9.94993 1.57383 10.0566 1.11896 9.74289 0.875232C8.97328 0.277359 8.25504 0.0912071 7.59338 0.185589C7.54749 0.0599953 7.426 -0.03364 7.2682 0.0159755C4.91961 0.755483 3.39869 3.26424 2.38113 5.34337C1.03841 8.08752 0.364804 11.2643 0.522603 14.3136C0.771427 19.1209 5.06361 23.705 10.1748 22.3703C13.9061 21.3961 14.9652 16.7771 14.3253 13.4816ZM4.76206 17.3284C4.76243 17.3268 4.76343 17.3258 4.7638 17.3243C4.78718 17.2342 4.8072 17.1432 4.82846 17.0523C4.8976 17.1415 4.9604 17.2407 5.01586 17.3485C4.92819 17.3599 4.84289 17.3672 4.76131 17.369C4.76081 17.3548 4.76256 17.3421 4.76206 17.3284ZM3.68096 6.04669C3.74264 6.07305 3.80805 6.08972 3.87619 6.09606C3.67648 6.49646 3.49232 6.90383 3.32644 7.32028C3.26141 7.3015 3.19326 7.29056 3.12375 7.29069C3.29262 6.86914 3.48163 6.45568 3.68096 6.04669ZM3.16827 18.2496C3.32893 18.4156 3.50128 18.5747 3.68071 18.7279C3.65385 18.7626 3.6311 18.7999 3.61182 18.839C3.45191 18.6519 3.30095 18.4574 3.16827 18.2496ZM7.77816 18.2331C7.57224 17.9642 7.41668 17.6674 7.31894 17.3432C7.31657 17.3194 7.30874 17.2955 7.29581 17.2716C7.26571 17.1601 7.24196 17.0456 7.22679 16.9272C7.56453 17.3863 7.83598 17.8976 8.08779 18.4144C7.97923 18.3648 7.87627 18.3038 7.77816 18.2331Z" fill="#FF9F1C"/>
<path d="M15.1046 7.24504C15.5566 5.41934 16.7894 4.15905 17.685 2.51254C17.8306 2.24481 17.7734 1.82849 17.4685 1.68686C16.911 1.42783 16.41 1.14046 15.8527 0.927203C15.6839 0.567459 15.1746 0.331319 14.7846 0.682731C14.0951 1.30411 13.3423 2.10106 12.7408 2.99141C11.9432 3.96979 11.3705 5.15733 11.1802 6.29961C11.1577 6.4349 11.1811 6.57206 11.2341 6.69716C11.2054 6.74702 11.1765 6.79626 11.1477 6.84625C11.002 7.09856 11.085 7.43766 11.341 7.58377C14.3769 9.31472 15.6327 12.1332 15.5433 15.103C15.3896 15.5362 15.3506 16.0041 15.4091 16.4745C15.1634 17.969 14.6007 19.4654 13.7697 20.8474C13.5829 21.1579 13.6526 21.4485 13.8349 21.6455C13.8826 21.8009 14.0081 21.9324 14.2336 21.9833C19.0736 23.0766 23.9427 20.7604 24.4679 15.4797C24.9566 10.5659 19.8378 6.42483 15.1046 7.24504ZM16.9458 20.8999C16.9629 20.8838 16.978 20.8662 16.9948 20.8498C17.4391 20.8153 17.8453 20.6905 18.1903 20.4897C18.1943 20.5068 18.1969 20.5226 18.201 20.5399C18.2122 20.5873 18.2363 20.6232 18.2556 20.6637C17.8286 20.7723 17.3905 20.853 16.9458 20.8999ZM20.3788 11.6616C20.3329 11.7458 20.2926 11.8303 20.252 11.915C20.2488 11.8914 20.2483 11.867 20.2447 11.8434C20.2508 11.6685 20.2816 11.4884 20.3291 11.3047C20.3342 11.3082 20.34 11.3112 20.3451 11.3146C20.3694 11.4159 20.3893 11.5191 20.4049 11.6241C20.3968 11.6371 20.3863 11.6479 20.3788 11.6616ZM22.691 16.9606C22.6929 16.8452 22.691 16.7289 22.6869 16.6119C22.7628 16.4831 22.8327 16.3509 22.8921 16.2141C22.8434 16.4754 22.7724 16.7216 22.691 16.9606Z" fill="#FF9F1C"/>
</svg>
