<svg width="25" height="25" viewBox="0 0 25 25" fill="none" xmlns="http://www.w3.org/2000/svg">
<path d="M21.0497 4.896H3.95807C2.87882 4.896 2.00391 5.7709 2.00391 6.85016C2.00391 7.50354 2.33045 8.11369 2.87409 8.47612L10.7289 13.7126C11.3704 14.1403 11.6911 14.3542 12.0378 14.4372C12.3442 14.5107 12.6636 14.5107 12.97 14.4372C13.3167 14.3542 13.6374 14.1403 14.2789 13.7126L14.2789 13.7126L22.1337 8.47612C22.6774 8.11369 23.0039 7.50354 23.0039 6.85016C23.0039 5.7709 22.129 4.896 21.0497 4.896Z" fill="#FF492F"/>
<path d="M5.20391 20.896H19.8039C20.924 20.896 21.4841 20.896 21.9119 20.678C22.2882 20.4863 22.5942 20.1803 22.7859 19.804C23.0039 19.3762 23.0039 18.8161 23.0039 17.696V9.396L15.1665 14.621C14.2042 15.2625 13.7231 15.5832 13.203 15.7078C12.7435 15.818 12.2644 15.818 11.8048 15.7078C11.2848 15.5832 10.8036 15.2625 9.84134 14.621L2.00391 9.396V17.696C2.00391 18.8161 2.00391 19.3762 2.22189 19.804C2.41364 20.1803 2.7196 20.4863 3.09593 20.678C3.52375 20.896 4.0838 20.896 5.20391 20.896Z" fill="#FF492F"/>
</svg>
