<svg width="25" height="25" viewBox="0 0 25 25" fill="none" xmlns="http://www.w3.org/2000/svg">
<path d="M17.305 1.62421L14.5278 1.61963C11.4076 1.61963 9.39122 3.74472 9.39122 7.03386V9.53018H6.59881C6.35751 9.53018 6.16211 9.73113 6.16211 9.979V13.5959C6.16211 13.8438 6.35773 14.0445 6.59881 14.0445H9.39122V23.171C9.39122 23.4189 9.58662 23.6196 9.82792 23.6196H13.4712C13.7125 23.6196 13.9079 23.4187 13.9079 23.171V14.0445H17.1729C17.4142 14.0445 17.6096 13.8438 17.6096 13.5959L17.6109 9.979C17.6109 9.85999 17.5648 9.74601 17.483 9.66178C17.4013 9.57756 17.2899 9.53018 17.174 9.53018H13.9079V7.41402C13.9079 6.3969 14.1439 5.88057 15.4337 5.88057L17.3046 5.87988C17.5457 5.87988 17.7411 5.67893 17.7411 5.43129V2.0728C17.7411 1.82539 17.5459 1.62466 17.305 1.62421Z" fill="#BFBFBF"/>
</svg>
