<svg width="20" height="21" viewBox="0 0 20 21" fill="none" xmlns="http://www.w3.org/2000/svg">
<path fill-rule="evenodd" clip-rule="evenodd" d="M-0.806641 10.6196C-0.806641 6.42826 -0.806641 4.33257 0.243766 2.88681C0.583004 2.41989 0.99362 2.00927 1.46054 1.67004C2.9063 0.619629 5.00199 0.619629 9.19336 0.619629C13.3847 0.619629 15.4804 0.619629 16.9262 1.67004C17.3931 2.00927 17.8037 2.41989 18.143 2.88681C19.1934 4.33257 19.1934 6.42826 19.1934 10.6196C19.1934 14.811 19.1934 16.9067 18.143 18.3524C17.8037 18.8194 17.3931 19.23 16.9262 19.5692C15.4804 20.6196 13.3847 20.6196 9.19336 20.6196C5.00199 20.6196 2.9063 20.6196 1.46054 19.5692C0.99362 19.23 0.583004 18.8194 0.243766 18.3524C-0.806641 16.9067 -0.806641 14.811 -0.806641 10.6196ZM9.19336 5.32551C6.26968 5.32551 3.89924 7.69595 3.89924 10.6196C3.89924 13.5433 6.26968 15.9137 9.19336 15.9137C12.117 15.9137 14.4875 13.5433 14.4875 10.6196C14.4875 7.69595 12.117 5.32551 9.19336 5.32551ZM9.19336 13.9285C7.36954 13.9285 5.88454 12.4435 5.88454 10.6196C5.88454 8.79448 7.36954 7.31081 9.19336 7.31081C11.0172 7.31081 12.5022 8.79448 12.5022 10.6196C12.5022 12.4435 11.0172 13.9285 9.19336 13.9285ZM15.59 4.92846C15.59 5.31806 15.2741 5.6339 14.8845 5.6339C14.4949 5.6339 14.1791 5.31806 14.1791 4.92846C14.1791 4.53886 14.4949 4.22302 14.8845 4.22302C15.2741 4.22302 15.59 4.53886 15.59 4.92846Z" fill="#BFBFBF"/>
</svg>
