<svg width="25" height="25" viewBox="0 0 25 25" fill="none" xmlns="http://www.w3.org/2000/svg">
<path d="M19.2714 19.4637V19.4629H19.2764V12.1279C19.2764 8.53956 18.5039 5.77539 14.3089 5.77539C12.2923 5.77539 10.9389 6.88206 10.3864 7.93123H10.3281V6.11039H6.35059V19.4629H10.4923V12.8512C10.4923 11.1104 10.8223 9.42706 12.9781 9.42706C15.1023 9.42706 15.1339 11.4137 15.1339 12.9629V19.4637H19.2714Z" fill="#BFBFBF"/>
<path d="M10.7402 5.94336H14.8869V19.2959H10.7402V5.94336Z" fill="#BFBFBF"/>
<path d="M12.8128 10.2065C11.487 10.2065 10.4111 11.2824 10.4111 12.6082C10.4111 13.934 11.487 15.0324 12.8128 15.0324C14.1386 15.0324 15.2145 13.934 15.2145 12.6082C15.2136 11.2824 14.1378 10.2065 12.8128 10.2065V10.2065Z" fill="#BFBFBF"/>
</svg>
