<svg width="20" height="23" viewBox="0 0 20 23" fill="none" xmlns="http://www.w3.org/2000/svg">
<path fill-rule="evenodd" clip-rule="evenodd" d="M10.4771 22.2779C12.8991 20.6549 19.0039 16.0074 19.0039 10.396C19.0039 5.14929 14.7506 0.895996 9.50391 0.895996C4.2572 0.895996 0.00390625 5.14929 0.00390625 10.396C0.00390625 16.0074 6.10867 20.6549 8.53071 22.2779C9.12571 22.6766 9.88211 22.6766 10.4771 22.2779ZM9.50391 13.396C11.1608 13.396 12.5039 12.0529 12.5039 10.396C12.5039 8.73914 11.1608 7.396 9.50391 7.396C7.84705 7.396 6.50391 8.73914 6.50391 10.396C6.50391 12.0529 7.84705 13.396 9.50391 13.396Z" fill="#FF492F"/>
</svg>
