<svg width="21" height="21" viewBox="0 0 21 21" fill="none" xmlns="http://www.w3.org/2000/svg">
<path d="M14.8374 14.77L14.1863 15.7467C14.0563 15.9417 13.8844 16.108 13.6579 16.1679C12.9159 16.364 10.9459 16.4525 7.94664 13.4533C4.94741 10.454 5.03593 8.48405 5.232 7.74202C5.29186 7.51548 5.45821 7.34359 5.65317 7.21362L6.6299 6.56246C7.3571 6.07766 7.55361 5.09514 7.06881 4.36794L5.22408 1.60085C4.80093 0.966115 3.98516 0.723612 3.28399 1.02412L2.45183 1.38076C1.81967 1.65168 1.304 2.13791 0.99642 2.75307C0.739447 3.26701 0.540275 3.80823 0.513289 4.3822C0.428246 6.19102 0.824873 10.6474 5.7887 15.6112C10.7525 20.5751 15.2089 20.9717 17.0177 20.8866C17.5917 20.8596 18.1329 20.6605 18.6468 20.4035C19.262 20.0959 19.7482 19.5802 20.0191 18.9481L20.3758 18.1159C20.6763 17.4147 20.4338 16.599 19.7991 16.1758L17.032 14.3311C16.3048 13.8463 15.3222 14.0428 14.8374 14.77Z" fill="#FF492F"/>
</svg>
