<svg width="22" height="17" viewBox="0 0 22 17" fill="none" xmlns="http://www.w3.org/2000/svg">
<path d="M21.0723 2.38562C20.2993 2.71355 19.47 2.93595 18.5987 3.03524C19.4884 2.52509 20.1694 1.71591 20.4922 0.754677C19.6576 1.22711 18.7364 1.57016 17.7548 1.75613C16.9688 0.953226 15.8508 0.453125 14.6107 0.453125C12.2316 0.453125 10.3025 2.30019 10.3025 4.57698C10.3025 4.89989 10.3406 5.21527 10.4141 5.51686C6.83428 5.34469 3.65994 3.70245 1.53541 1.20701C1.16403 1.81517 0.952757 2.52381 0.952757 3.28025C0.952757 4.71142 1.71387 5.97421 2.86867 6.71301C2.16266 6.69041 1.49866 6.50444 0.917345 6.19533V6.24685C0.917345 8.24469 2.40282 9.91207 4.3725 10.2916C4.01162 10.3845 3.63108 10.4361 3.2374 10.4361C2.95922 10.4361 2.6902 10.4097 2.42643 10.3594C2.97494 11.9991 4.56541 13.1916 6.44982 13.2242C4.97615 14.33 3.11799 14.9871 1.09976 14.9871C0.752022 14.9871 0.409501 14.967 0.0722656 14.9306C1.97898 16.1029 4.24262 16.7865 6.67554 16.7865C14.6002 16.7865 18.932 10.5014 18.932 5.0507L18.9176 4.51669C19.7639 3.93865 20.4962 3.2124 21.0723 2.38562Z" fill="#BFBFBF"/>
</svg>
